<svg width="93" height="28" viewBox="0 0 93 28" fill="none" xmlns="http://www.w3.org/2000/svg">
<g clip-path="url(#clip0_1558_16079)">
<path d="M10.9496 10.5432V5.9039H8.50919C8.56779 5.86237 8.62828 5.82085 8.68877 5.78216C9.53279 5.23386 10.5148 4.94508 11.528 4.94508C14.406 4.94508 16.7481 7.28361 16.7481 10.1572V10.4875H21.661V10.1572C21.661 8.79262 21.3925 7.46764 20.8633 6.21816C20.3529 5.01303 19.6223 3.93153 18.6922 3.00291C17.7622 2.07429 16.6791 1.3448 15.4721 0.836134C14.2226 0.306708 12.8947 0.0386924 11.528 0.0386924C9.56209 0.0386924 7.65383 0.602092 6.01116 1.66849C5.52724 1.98275 5.07073 2.33759 4.64731 2.72923V0H0V5.78688L5.97241 10.5442H10.9496V10.5432Z" fill="white"/>
<path d="M10.9494 10.9216V15.5619H13.3595C12.4815 16.1885 11.4323 16.5264 10.3322 16.5264C7.4542 16.5264 5.11211 14.1879 5.11211 11.3142V10.9839H0.199219V11.3142C0.199219 12.6789 0.467642 14.0038 0.996926 15.2533C1.50731 16.4584 2.23791 17.5399 3.16699 18.4686C4.09702 19.3972 5.18016 20.1257 6.38712 20.6363C7.63756 21.1648 8.96549 21.4328 10.3322 21.4328C12.9068 21.4328 15.3859 20.4475 17.2526 18.7054V21.4413H21.8999V15.6789L15.9275 10.9226H10.9503L10.9494 10.9216Z" fill="white"/>
<path d="M37.598 13.6707H42.2935V13.7009C41.9911 14.8503 41.4098 15.677 40.5516 16.181C39.6934 16.6849 38.7691 16.9369 37.7804 16.9369C36.2049 16.9369 34.9885 16.3773 34.1303 15.258C33.2721 14.1388 32.843 12.642 32.843 10.7669C32.843 8.89171 33.2768 7.44499 34.1454 6.30592C35.013 5.16685 36.2049 4.59685 37.7199 4.59685C38.8305 4.59685 39.7388 4.91394 40.4458 5.54906C41.1527 6.18418 41.6168 7.02598 41.8389 8.07445H47.3217C47.18 6.50127 46.7008 5.10551 45.8832 3.88528C45.0657 2.666 43.9646 1.71285 42.5818 1.02676C41.1981 0.341625 39.6282 -0.00188828 37.8712 -0.00188828C35.6699 -0.00188828 33.7617 0.441659 32.1464 1.32875C30.5302 2.21585 29.2939 3.46627 28.4357 5.07909C27.5775 6.69285 27.1484 8.58783 27.1484 10.765C27.1484 12.9421 27.5671 14.8135 28.4055 16.4358C29.2429 18.059 30.43 19.3141 31.9649 20.2012C33.4989 21.0883 35.2767 21.5319 37.2965 21.5319C38.5885 21.5319 39.7246 21.3205 40.7038 20.8967C41.683 20.473 42.4854 19.8785 43.112 19.1122L43.7179 21.3507H47.4134V9.43623H37.599V13.6707H37.598Z" fill="white"/>
<path d="M59.9213 5.7463H59.1642C58.0735 5.7463 57.1851 5.93787 56.4989 6.32102C55.8118 6.70417 55.2371 7.2789 54.7721 8.04519L54.3477 5.7463H49.5312V21.3526H54.7712V13.8519C54.7712 11.5332 55.8316 10.3733 57.9516 10.3733H59.9203V5.7463H59.9213Z" fill="white"/>
<path d="M72.238 6.50222C70.9763 5.87748 69.5169 5.56511 67.861 5.56511C66.2051 5.56511 64.8271 5.89258 63.605 6.54846C62.3829 7.20434 61.434 8.13579 60.7573 9.34564C60.0806 10.5555 59.7422 11.9767 59.7422 13.6103C59.7422 15.2439 60.0909 16.6245 60.7875 17.8146C61.4841 19.0046 62.4992 19.9219 63.8319 20.5664C65.1645 21.2119 66.7495 21.5347 68.5879 21.5347C70.0009 21.5347 71.2485 21.2884 72.3288 20.7939C73.4091 20.3003 74.2673 19.635 74.9033 18.7979C75.5394 17.9618 75.9279 17.0388 76.0697 16.0309H70.9205C70.618 17.1804 69.7192 17.7551 68.2249 17.7551C66.4679 17.7551 65.4585 16.7869 65.1957 14.8513V14.7909H76.0999C76.201 14.3068 76.2511 13.7424 76.2511 13.0969C76.2511 11.6049 75.8977 10.2894 75.1907 9.15029C74.4837 8.01122 73.4989 7.12885 72.2371 6.50411L72.238 6.50222ZM65.2562 11.5832C65.3772 10.8377 65.6853 10.2677 66.1806 9.87412C66.6749 9.48059 67.3261 9.2843 68.1342 9.2843C68.9423 9.2843 69.5727 9.48059 70.0878 9.87412C70.6029 10.2677 70.9309 10.8377 71.0727 11.5832H65.2571H65.2562Z" fill="white"/>
<path d="M87.3942 5.7463L84.1533 16.1206L80.8822 5.7463H75.3086L81.3065 21.4432L81.0948 22.0179C80.953 22.4416 80.7612 22.7238 80.5192 22.8644C80.2773 23.005 79.9134 23.0758 79.4285 23.0758H76.9749V27.4008H81.7611C82.5891 27.4008 83.2705 27.2499 83.8055 26.9469C84.3405 26.6449 84.7847 26.2108 85.1382 25.6465C85.4916 25.0821 85.8499 24.3158 86.2137 23.3476L92.999 5.74535H87.3952L87.3942 5.7463Z" fill="white"/>
</g>
<defs>
<clipPath id="clip0_1558_16079">
<rect width="93" height="27.4018" fill="white"/>
</clipPath>
</defs>
</svg>
